HIERARCHY
ROOT Hips
{
 OFFSET 0.000000 0.000000 0.000000
 CHANNELS 6 Xposition Yposition Zposition Yrotation Xrotation Zrotation
 JOINT Chest
 {
  OFFSET 0.000000 9.585900 0.002600
  CHANNELS 3 Yrotation Xrotation Zrotation
  JOINT Chest2
  {
   OFFSET 0.000000 9.601200 -0.005300
   CHANNELS 3 Yrotation Xrotation Zrotation
   JOINT Chest3
   {
    OFFSET 0.000000 9.561800 0.000000
    CHANNELS 3 Yrotation Xrotation Zrotation
    JOINT Chest4
    {
     OFFSET 0.000000 9.552100 0.000000
     CHANNELS 3 Yrotation Xrotation Zrotation
     JOINT Neck
     {
      OFFSET 0.000000 14.453000 0.000000
      CHANNELS 3 Yrotation Xrotation Zrotation
      JOINT Head
      {
       OFFSET 0.000000 8.936500 -0.011300
       CHANNELS 3 Yrotation Xrotation Zrotation
       End Site
       {
        OFFSET 0.000000 17.073600 -0.006000
       }
      }
     }
     JOINT RightCollar
     {
      OFFSET -2.921100 9.558500 0.000000
      CHANNELS 3 Yrotation Xrotation Zrotation
      JOINT RightShoulder
      {
       OFFSET -13.519700 0.000000 0.000000
       CHANNELS 3 Yrotation Xrotation Zrotation
       JOINT RightElbow
       {
        OFFSET 0.000000 -29.696600 0.000000
        CHANNELS 3 Yrotation Xrotation Zrotation
        JOINT RightWrist
        {
         OFFSET 0.000000 -24.004700 0.000000
         CHANNELS 3 Yrotation Xrotation Zrotation
         End Site
         {
          OFFSET 0.000000 -17.728500 0.000000
         }
        }
       }
      }
     }
     JOINT LeftCollar
     {
      OFFSET 2.921100 9.558500 0.000000
      CHANNELS 3 Yrotation Xrotation Zrotation
      JOINT LeftShoulder
      {
       OFFSET 13.519700 0.000000 0.000000
       CHANNELS 3 Yrotation Xrotation Zrotation
       JOINT LeftElbow
       {
        OFFSET 0.000000 -29.696600 0.000000
        CHANNELS 3 Yrotation Xrotation Zrotation
        JOINT LeftWrist
        {
         OFFSET 0.000000 -24.004700 0.000000
         CHANNELS 3 Yrotation Xrotation Zrotation
         End Site
         {
          OFFSET 0.000000 -17.728500 0.000000
         }
        }
       }
      }
     }
    }
   }
  }
 }
 JOINT RightHip
 {
  OFFSET -7.771700 -0.012900 -0.001300
  CHANNELS 3 Yrotation Xrotation Zrotation
  JOINT RightKnee
  {
   OFFSET 0.000000 -40.869800 0.001200
   CHANNELS 3 Yrotation Xrotation Zrotation
   JOINT RightAnkle
   {
    OFFSET 0.000000 -39.717900 0.002100
    CHANNELS 3 Yrotation Xrotation Zrotation
    JOINT RightToe
    {
     OFFSET 0.000000 -4.965400 11.033500
     CHANNELS 3 Yrotation Xrotation Zrotation
     End Site
     {
      OFFSET 0.000000 -1.423100 5.872300
     }
    }
   }
  }
 }
 JOINT LeftHip
 {
  OFFSET 7.771700 -0.012900 -0.001300
  CHANNELS 3 Yrotation Xrotation Zrotation
  JOINT LeftKnee
  {
   OFFSET 0.000000 -40.869800 0.001200
   CHANNELS 3 Yrotation Xrotation Zrotation
   JOINT LeftAnkle
   {
    OFFSET 0.000000 -39.717900 0.002100
    CHANNELS 3 Yrotation Xrotation Zrotation
    JOINT LeftToe
    {
     OFFSET 0.000000 -4.965400 11.033500
     CHANNELS 3 Yrotation Xrotation Zrotation
     End Site
     {
      OFFSET 0.000000 -1.423100 5.872300
     }
    }
   }
  }
 }
}
MOTION
Frames: 16
Frame Time: 0.008333
-87.283191 46.691385 -17.417819 173.595752 -30.772651 -3.612149 2.226241 17.556068 1.733291 0.107181 1.955101 0.157167 0.181014 3.245020 0.263044 1.108622 15.576737 1.402818 -0.756754 14.411664 -2.720837 -0.350774 -9.024726 -4.793384 0.583309 0.352558 -0.622271 5.413696 -9.472714 -16.291854 -30.644558 -61.455839 78.050517 1.385033 7.907027 -16.676893 -1.106677 0.444427 2.534987 -2.547852 -4.137448 11.339336 45.064193 -81.387930 -81.342077 -3.317433 10.596144 5.799114 -7.583014 -55.852937 -2.378418 -147.742925 77.658938 -138.209486 -10.158585 -18.769821 -6.829945 -0.341185 -1.374821 -0.222253 -1.562256 -58.342926 14.366607 -118.953693 82.596646 -122.807985 6.514526 -7.077785 4.996163 0.682209 0.318106 0.188424
-87.277177 46.689250 -17.437857 173.516229 -30.762001 -3.566826 2.204350 17.555437 1.699898 0.107561 1.950297 0.154771 0.181600 3.237494 0.259131 1.109888 15.560483 1.384870 -0.716438 14.412286 -2.711580 -0.395051 -9.058321 -4.719476 0.581104 0.365285 -0.634020 5.376626 -9.506996 -16.323760 -30.566986 -61.414998 78.056264 1.394657 7.914841 -16.682207 -1.066643 0.450397 2.532918 -2.547156 -4.120100 11.329104 44.966815 -81.421692 -81.261362 -3.296400 10.637825 5.765475 -7.683092 -55.858926 -2.413688 -147.679912 77.658176 -138.138625 -10.159731 -18.559517 -6.880329 -0.357333 -1.428834 -0.228170 -1.591256 -58.334430 14.397435 -119.291945 82.592936 -123.126890 6.529321 -7.145083 4.973445 0.710624 0.337750 0.147194
-87.273497 46.686778 -17.456448 173.434691 -30.748917 -3.515979 2.183004 17.556338 1.662334 0.108010 1.944940 0.152363 0.182326 3.229028 0.255180 1.051245 15.531886 1.355230 -0.656785 14.412886 -2.689143 -0.404130 -9.065618 -4.665444 0.636151 0.386250 -0.651243 5.357970 -9.527302 -16.340977 -30.478519 -61.399695 78.034478 1.379226 7.911248 -16.698700 -1.010935 0.456074 2.529466 -2.574504 -4.107704 11.316830 44.744896 -81.406513 -81.007477 -3.268909 10.668970 5.739051 -7.752530 -55.869825 -2.461412 -147.626170 77.666807 -138.073186 -10.161448 -18.338485 -6.931294 -0.373192 -1.474197 -0.231220 -1.620509 -58.328239 14.425825 -119.607330 82.586548 -123.425501 6.546550 -7.206792 4.913770 0.700919 0.348378 0.189897
-87.270936 46.683028 -17.471484 173.322822 -30.721719 -3.454414 2.210174 17.537846 1.637022 0.088863 1.943571 0.150193 0.182980 3.220945 0.251084 1.034251 15.510571 1.332870 -0.694585 14.396285 -2.636775 -0.356178 -9.054356 -4.649333 0.651361 0.394002 -0.666829 5.349867 -9.537534 -16.344087 -30.415228 -61.371963 77.973722 1.370778 7.911445 -16.675341 -1.052182 0.428287 2.534907 -2.555587 -4.081921 11.311230 44.570445 -81.353720 -80.880697 -3.236099 10.706503 5.791305 -7.789251 -55.897395 -2.497940 -147.578949 77.687016 -138.009544 -10.153164 -18.120049 -6.990950 -0.389474 -1.496332 -0.231582 -1.640205 -58.336224 14.466305 -119.898280 82.580043 -123.702890 6.583099 -7.266527 4.836228 0.711508 0.359770 0.215029
-87.267691 46.678496 -17.483311 173.165225 -30.685465 -3.384237 2.260288 17.510639 1.620021 0.130617 1.934027 0.149666 0.142292 3.218537 0.246403 1.036582 15.495829 1.314575 -0.714896 14.393047 -2.598901 -0.350079 -9.049971 -4.608255 0.649627 0.391381 -0.684337 5.333356 -9.541809 -16.334758 -30.368589 -61.329804 77.958094 1.357300 7.917560 -16.683591 -1.071905 0.417032 2.540133 -2.557193 -4.082522 11.319539 44.463967 -81.310068 -80.812646 -3.211788 10.741462 5.809686 -7.796868 -55.935741 -2.506315 -147.559834 77.719151 -137.970088 -10.118192 -17.908012 -7.062381 -0.409984 -1.493422 -0.232550 -1.647821 -58.353921 14.532584 -120.190398 82.574032 -123.981866 6.639593 -7.325260 4.775850 0.717597 0.368130 0.219271
-87.265037 46.675328 -17.496136 173.040326 -30.663920 -3.333133 2.261660 17.501525 1.597199 0.131201 1.928870 0.146657 0.162557 3.209771 0.242209 1.039305 15.483164 1.297270 -0.716439 14.397440 -2.571104 -0.363585 -9.042445 -4.555392 0.649346 0.384182 -0.704094 5.315702 -9.538927 -16.315511 -30.327520 -61.282612 77.959310 1.329770 7.922591 -16.706240 -1.033445 0.420955 2.540537 -2.566982 -4.088136 11.327501 44.433544 -81.309532 -80.839718 -3.200327 10.773600 5.800791 -7.817169 -55.955737 -2.517148 -147.591200 77.761866 -137.977381 -10.088196 -17.690476 -7.135025 -0.423348 -1.490064 -0.232083 -1.684346 -58.357479 14.599172 -120.492098 82.567541 -124.266779 6.688609 -7.381366 4.714346 0.735889 0.375689 0.222383
-87.261704 46.674085 -17.510915 172.944797 -30.665392 -3.303534 2.262507 17.509251 1.586893 0.109840 1.928016 0.142974 0.185097 3.202204 0.239516 1.041667 15.472653 1.281412 -0.718295 14.405240 -2.545167 -0.377177 -9.028595 -4.505827 0.667195 0.379249 -0.720114 5.328437 -9.530561 -16.299677 -30.324234 -61.220376 77.944296 1.301400 7.924124 -16.723740 -0.995110 0.426070 2.539604 -2.641525 -4.121963 11.369367 44.428214 -81.280004 -80.830381 -3.198887 10.800315 5.790316 -7.849780 -55.948115 -2.522660 -147.706517 77.813741 -138.078779 -10.037646 -17.478211 -7.186020 -0.462919 -1.479126 -0.246039 -1.721710 -58.342796 14.657473 -120.795891 82.554899 -124.539666 6.736159 -7.434020 4.640867 0.734145 0.380024 0.240107
-87.260382 46.674592 -17.528362 172.892580 -30.691636 -3.282969 2.228397 17.542926 1.565431 0.109917 1.925274 0.141013 0.203512 3.197298 0.237625 1.023170 15.464545 1.266384 -0.720824 14.415884 -2.521284 -0.391405 -9.009438 -4.459813 0.659462 0.364900 -0.737980 5.312716 -9.518702 -16.268669 -30.261264 -61.199451 77.948976 1.231546 7.921463 -16.764539 -1.068280 0.420022 2.559839 -2.600802 -4.144156 11.397893 44.490586 -81.257727 -80.890350 -3.201910 10.824815 5.781155 -7.881245 -55.914057 -2.553472 -147.935055 77.871327 -138.322567 -9.943526 -17.282552 -7.197337 -0.547982 -1.453644 -0.282198 -1.712563 -58.312482 14.665264 -121.044587 82.523851 -124.727956 6.690728 -7.468409 4.579649 0.806468 0.376261 0.260698
-87.252548 46.669256 -17.533676 172.771651 -30.655979 -3.273243 2.267653 17.509036 1.590907 0.109856 1.923406 0.139291 0.258612 3.191947 0.238734 0.966292 15.461043 1.252068 -0.724356 14.427881 -2.499972 -0.406491 -8.987761 -4.418190 0.629196 0.341936 -0.759834 5.357277 -9.496909 -16.238627 -30.232757 -61.171024 77.946487 1.164330 7.911112 -16.800715 -1.107993 0.416656 2.579826 -2.575759 -4.163291 11.419633 44.607916 -81.257950 -81.019477 -3.208122 10.845251 5.771700 -7.932088 -55.937341 -2.507589 -148.028876 77.933897 -138.327989 -9.932630 -17.108283 -7.354865 -0.453738 -1.427886 -0.241084 -1.812275 -58.336376 14.803608 -121.386746 82.525019 -125.047962 6.741929 -7.526709 4.512750 0.790687 0.392252 0.265456
-87.251913 46.663475 -17.539737 172.662488 -30.628891 -3.222550 2.322525 17.481038 1.581331 0.072612 1.925629 0.136112 0.203848 3.192902 0.232522 1.019956 15.458220 1.241096 -0.728809 14.439344 -2.482737 -0.421730 -8.966975 -4.383939 0.622120 0.323186 -0.780954 5.401115 -9.482384 -16.215606 -30.313035 -61.044257 77.948242 1.214398 7.912604 -16.761199 -1.082252 0.411628 2.583844 -2.625146 -4.187373 11.454604 44.750251 -81.259722 -81.163660 -3.216364 10.859872 5.757523 -7.918806 -55.963074 -2.530883 -148.259401 78.012576 -138.505881 -9.930556 -16.957405 -7.459833 -0.392229 -1.379859 -0.222205 -1.901420 -58.346705 14.846403 -121.920431 82.570297 -125.584525 6.880372 -7.571853 4.504459 0.701021 0.391929 0.193818
-87.251191 46.660580 -17.550681 172.600623 -30.645204 -3.188349 2.281542 17.504199 1.547128 0.091084 1.924798 0.136051 0.184440 3.195136 0.229033 1.033878 15.460037 1.230894 -0.694825 14.438842 -2.481834 -0.474885 -8.938182 -4.338933 0.657391 0.307445 -0.798542 5.388490 -9.475846 -16.191736 -30.359350 -60.974453 77.967236 1.220576 7.909304 -16.753634 -1.128141 0.405478 2.609733 -2.606627 -4.214909 11.459098 44.895314 -81.258341 -81.302421 -3.225463 10.871162 5.739425 -7.920262 -55.948569 -2.558111 -148.482741 78.070013 -138.729637 -9.875436 -16.797894 -7.477722 -0.408132 -1.344368 -0.246879 -1.919407 -58.324358 14.844645 -122.294158 82.577484 -125.922830 6.923818 -7.602610 4.438236 0.703237 0.384472 0.207070
-87.250118 46.656783 -17.559891 172.550607 -30.661394 -3.159851 2.236331 17.528705 1.516856 0.140948 1.920049 0.135905 0.149816 3.202053 0.228153 1.022935 15.465349 1.221094 -0.718171 14.450713 -2.469356 -0.464865 -8.929989 -4.335323 0.628990 0.281313 -0.817092 5.443662 -9.465163 -16.174616 -30.360744 -60.958410 77.984371 1.177441 7.886751 -16.783062 -1.171666 0.405090 2.638525 -2.537047 -4.239462 11.435020 45.012744 -81.279193 -81.461703 -3.235438 10.876280 5.718125 -7.925711 -55.938187 -2.581344 -148.675064 78.120019 -138.924479 -9.830421 -16.633088 -7.478617 -0.418889 -1.319693 -0.274851 -1.941551 -58.302701 14.839686 -122.671409 82.591565 -126.264771 6.965066 -7.634087 4.373506 0.693295 0.384392 0.206341
-87.243408 46.646565 -17.556389 172.429847 -30.611166 -3.136729 2.315363 17.476280 1.544860 0.090923 1.929741 0.136588 0.197671 3.194497 0.224603 0.974945 15.479957 1.216622 -0.740194 14.462091 -2.462476 -0.451502 -8.925490 -4.341273 0.602589 0.257795 -0.828567 5.466325 -9.456803 -16.178339 -30.446456 -60.935716 78.068347 1.182543 7.894643 -16.768689 -1.141969 0.393956 2.638469 -2.544349 -4.258270 11.433482 45.101183 -81.297825 -81.589470 -3.243158 10.875053 5.693435 -7.940493 -55.996473 -2.526014 -148.785973 78.202075 -138.992247 -9.842330 -16.435080 -7.538144 -0.360318 -1.307621 -0.272331 -1.971769 -58.351279 14.918676 -123.034077 82.605271 -126.588782 6.995792 -7.685110 4.334681 0.676689 0.408163 0.181184
-87.242361 46.639679 -17.559505 172.376163 -30.607182 -3.109357 2.327603 17.475227 1.534955 0.039106 1.943082 0.141771 0.246814 3.183445 0.216575 0.925104 15.498950 1.218100 -0.741804 14.466310 -2.466692 -0.453054 -8.917573 -4.348395 0.604093 0.239477 -0.841324 5.481366 -9.461249 -16.196482 -30.550939 -60.935340 78.144101 1.187754 7.904309 -16.747271 -1.190221 0.391901 2.660010 -2.626685 -4.326517 11.441005 45.121017 -81.246449 -81.501459 -3.248436 10.875070 5.665959 -7.935325 -56.014069 -2.550471 -148.868043 78.242478 -139.070672 -9.781864 -16.243937 -7.538299 -0.366613 -1.302781 -0.292317 -1.989655 -58.351587 14.919311 -123.385558 82.621852 -126.905455 7.022233 -7.723182 4.286993 0.647847 0.412334 0.213139
-87.247950 46.631081 -17.560409 172.341853 -30.588316 -3.056884 2.203797 17.489862 1.473228 0.102654 1.930977 0.133985 0.248224 3.185063 0.210631 0.903747 15.509817 1.219723 -0.722654 14.460046 -2.485463 -0.469313 -8.902938 -4.354704 0.611376 0.224051 -0.860379 5.501137 -9.476767 -16.221594 -30.627050 -60.960001 78.197043 1.180907 7.928351 -16.703564 -1.237141 0.385399 2.671560 -2.654765 -4.376908 11.431660 45.145781 -81.225611 -81.466286 -3.252785 10.881252 5.636441 -7.891025 -56.051584 -2.638117 -148.907634 78.275491 -139.106566 -9.730963 -16.068957 -7.539915 -0.370560 -1.286073 -0.300633 -1.972399 -58.366111 14.870126 -123.626548 82.639799 -127.139794 7.035003 -7.744509 4.281493 0.631934 0.418252 0.186580
-87.244021 46.627892 -17.567143 172.293465 -30.627470 -3.053645 2.178811 17.544694 1.488002 0.100267 1.933858 0.134313 0.248213 3.186295 0.206684 0.881213 15.523487 1.223785 -0.721154 14.461566 -2.501352 -0.460478 -8.899785 -4.385179 0.623082 0.211633 -0.885400 5.515238 -9.504081 -16.253454 -30.699338 -60.998885 78.248112 1.191452 7.912977 -16.707170 -1.256742 0.371546 2.664521 -2.679769 -4.418365 11.426282 45.162064 -81.221751 -81.447127 -3.256118 10.892154 5.606712 -7.885127 -56.017482 -2.625864 -148.896723 78.296632 -139.094355 -9.693283 -15.900154 -7.527064 -0.383570 -1.276112 -0.304652 -1.996219 -58.325308 14.905081 -123.960365 82.637364 -127.415511 6.997386 -7.785119 4.207800 0.679938 0.431323 0.200161
